<svg role="img" viewBox="0 0 24 24" xmlns="http://www.w3.org/2000/svg" id="Linkfire--Streamline-Simple-Icons" height="24" width="24">
  <desc>
    Linkfire Streamline Icon: https://streamlinehq.com
  </desc>
  <title>Linkfire</title>
  <path d="M10.08 1.997A10.041 10.042 0 0 0 0 12.006a10.041 10.042 0 0 0 10.08 10 10.037 10.038 0 0 0 7.12 -2.933c2.883 -2.796 4.509 -8.065 5.775 -12.861l0.038 -0.152 0.09 -0.343a0.227 0.227 0 0 0 -0.038 -0.197 0.234 0.234 0 0 0 -0.185 -0.09h-1.711a0.23 0.23 0 0 1 -0.215 -0.14 0.227 0.227 0 0 1 0.053 -0.25l2.925 -2.646v-0.011a0.23 0.23 0 0 0 0.053 -0.246 0.23 0.23 0 0 0 -0.216 -0.143zm0.385 4.645h3.847a1.686 1.686 0 0 1 1.682 1.686v3.844a1.686 1.686 0 0 1 -1.682 1.686H10.47a1.686 1.686 0 0 1 -1.684 -1.686v-0.722h1.442v0.722a0.246 0.246 0 0 0 0.242 0.242h3.848a0.242 0.242 0 0 0 0.242 -0.242V8.324a0.242 0.242 0 0 0 -0.242 -0.242H10.47a0.242 0.242 0 0 0 -0.242 0.242v0.722H8.784v-0.718a1.686 1.686 0 0 1 1.684 -1.686zM7.582 9.526h3.84a1.686 1.686 0 0 1 1.684 1.686v0.718h-1.44v-0.718a0.242 0.242 0 0 0 -0.24 -0.242H7.577a0.242 0.242 0 0 0 -0.242 0.242v3.847a0.242 0.242 0 0 0 0.242 0.242h3.847a0.242 0.242 0 0 0 0.241 -0.242v-0.718h1.448v0.718a1.686 1.686 0 0 1 -1.686 1.682H7.582a1.686 1.686 0 0 1 -1.69 -1.682v-3.847a1.686 1.686 0 0 1 1.69 -1.686z" fill="#ffffff" stroke-width="1"></path>
</svg>